<svg width="7mm" height="7mm" viewBox="0 0 7 7.2" version="1.1" id="svg1"
     xmlns="http://www.w3.org/2000/svg">
    <g id="layer1" transform="translate(-2.25,-1.9)">
        <g transform="matrix(0.15,0,0,0.147,0,0)">
            <path d="m 33,28.77 -2,-0.63 m 0,0 c -1.332923,-0.247894 -2.70628,-0.165493 -4,0.24 V 28 c 0,-2.761424 -2.238576,-5 -5,-5 l -7.157253,-0.01834 -0.0677,2.090112 L 22,25 c 1.654803,0.0049 2.995058,1.345197 3,3 v 1.3 c -2.484745,1.550571 -3.996173,4.271141 -4,7.2 0.01511,0.533803 0.151918,1.057106 0.4,1.53 -1.267943,0.132713 -2.459771,0.669035 -3.4,1.53 -2.390886,1.716471 -2.677577,9.646955 4.220075,10.399158 L 36,50 v 9 c 0.0049,1.654803 1.345197,2.995058 3,3 h 12 c 1.654803,-0.0049 2.995058,-1.345197 3,-3 v -9 h 2 c 3.313711,0 5.999997,-2.686292 5.999997,-6 0,-3.313708 -2.686286,-6 -5.999997,-6 H 55.79 C 56.590477,36.455235 57.005604,34.739836 57,33 56.9961,26.926468 52.073532,22.003861 46,22 c -0.34,0 -0.67,0.02 -1,0.05 l 0.02241,-4.192152 c 0.0049,-1.654803 1.345197,-2.995058 3,-3 l 14.018944,0.02924 -0.0047,-2.01388 -14.014244,-0.01536 c -2.761422,-0.003 -4.986406,2.238609 -5,5 L 43,22.41 c -1.462642,0.409725 -2.824577,1.117931 -4,2.08 l -2,2.17 c -0.779022,1.109425 -1.345285,2.353847 -1.67,3.67 C 34.643368,29.686711 33.856359,29.159787 33,28.77 M 52,59 c 0,0.552285 -0.447715,1 -1,1 H 39 c -0.552285,0 -1,-0.447715 -1,-1 v -3 h 14 z m 0,-5 H 38 v -4 h 14 z m 0,-6 H 38 v -3 c 0,-0.552285 0.447715,-1 1,-1 h 12 c 0.552285,0 1,0.447715 1,1 z m 4,0 H 54 V 45 C 53.9951,43.345197 52.654803,42.004942 51,42 H 39 c -1.654803,0.0049 -2.995058,1.345197 -3,3 v 3 L 22.90454,48.05231 C 17.571209,48.052307 16.666669,40 22,40 h 1 c 0.324828,-5.78e-4 0.629717,-0.156741 0.82,-0.42 0.182909,-0.270559 0.227389,-0.611576 0.12,-0.92 -0.130206,-0.341924 -0.287367,-0.672965 -0.47,-0.99 -0.235982,-0.353253 -0.396028,-0.751666 -0.47,-1.17 -0.0093,-6.674311 8.849155,-9.016622 12.14,-3.21 0.503058,0.888006 1.856829,0.540514 1.87,-0.48 0.112408,-6.113704 6.157915,-10.337889 11.937407,-8.341143 C 54.726898,26.465603 56.875523,33.520765 53.19,38.4 52.695573,39.059236 53.165955,40 53.99,40 H 56 c 5.333331,0 5.333331,8 0,8 z"
                  style="fill:#F5CB5C"/>
        </g>
    </g>
</svg>
