<svg width="231.06183" height="53.424786" viewBox="0 0 231.06183 53.424786" preserveAspectRatio="xMidYMid"
     xmlns="http://www.w3.org/2000/svg">
    <rect fill-opacity="0" x="0" y="0.2" width="230" height="53" class="background"
          style="stroke-width:1.5; stroke: #EBE8E1"/>
    <g fill="#EBE8E1" class="iconblsvg-g iconsvg" transform="translate(5.093433,2.8768474)">
        <g class="tp-name" transform="translate(139,0)">
            <svg fill="#F5CB5C" width="33" height="33" class="image-svg-svg primary" version="1.1" viewBox="1 1 63 60">
                <path d="M 56,38 H 55.79 A 10.792,10.792 0 0 0 57,33 11.007,11.007 0 0 0 46,22 c -0.34,0 -0.67,0.02 -1,0.05 V 16 a 3.009,3.009 0 0 1 3,-3 H 58 V 11 H 48 a 5,5 0 0 0 -5,5 v 6.41 a 11,11 0 0 0 -4,2.08 V 7 a 3.009,3.009 0 0 1 3,-3 h 5 V 2 H 42 A 5,5 0 0 0 37,7 V 26.66 A 10.951,10.951 0 0 0 35.33,30.33 8.648,8.648 0 0 0 33,28.77 V 12 A 5,5 0 0 0 28,7 H 12 v 2 h 16 a 3.009,3.009 0 0 1 3,3 v 16.14 a 8.3,8.3 0 0 0 -4,0.24 V 28 A 5,5 0 0 0 22,23 H 6 v 2 h 16 a 3.009,3.009 0 0 1 3,3 v 1.3 a 8.5,8.5 0 0 0 -4,7.2 3.507,3.507 0 0 0 0.4,1.53 5.952,5.952 0 0 0 -3.4,1.53 V 36 A 5,5 0 0 0 13,31 H 6 v 2 h 7 a 3.009,3.009 0 0 1 3,3 v 5.75 A 6.981,6.981 0 0 0 13.71,43.67 6.262,6.262 0 0 0 11,43 6,6 0 0 0 5,49 v 0.13 A 4,4 0 0 0 6,57 h 20 a 4,4 0 0 0 4,-4 4.6,4.6 0 0 0 -1.88,-3 H 36 v 9 a 3.009,3.009 0 0 0 3,3 h 12 a 3.009,3.009 0 0 0 3,-3 v -9 h 2 A 6,6 0 0 0 56,38 Z M 26,55 H 6 a 2,2 0 0 1 0,-4 1,1 0 0 0 1,-1 v -1 a 4,4 0 0 1 4,-4 4.4,4.4 0 0 1 2.42,0.82 1.011,1.011 0 0 0 0.79,0.16 1.055,1.055 0 0 0 0.65,-0.46 5.51,5.51 0 0 1 1.15,-1.37 A 6,6 0 0 0 22,50 h 2.72 c 1.71,1.05 3.28,2.47 3.28,3 a 2.006,2.006 0 0 1 -2,2 z m 26,4 a 1,1 0 0 1 -1,1 H 39 a 1,1 0 0 1 -1,-1 v -3 h 14 z m 0,-5 H 38 v -4 h 14 z m 0,-6 H 38 v -3 a 1,1 0 0 1 1,-1 h 12 a 1,1 0 0 1 1,1 z m 4,0 H 54 V 45 A 3.009,3.009 0 0 0 51,42 H 39 a 3.009,3.009 0 0 0 -3,3 v 3 H 22 a 4,4 0 0 1 0,-8 h 1 A 1.014,1.014 0 0 0 23.82,39.58 1.035,1.035 0 0 0 23.94,38.66 6.909,6.909 0 0 0 23.47,37.67 3.068,3.068 0 0 1 23,36.5 6.492,6.492 0 0 1 35.14,33.29 1,1 0 0 0 37.01,32.81 9,9 0 1 1 53.19,38.4 1,1 0 0 0 53.99,40 H 56 a 4,4 0 0 1 0,8 z"/>
                <rect class="breathing" x="8" y="7" width="2" height="2"/>
                <rect class="breathing" x="2" y="23" width="2" height="2"/>
                <rect class="breathing" x="49" y="2" width="2" height="2"/>
                <rect class="breathing" x="60" y="11" width="2" height="2"/>
                <rect class="breathing" x="2" y="31" width="2" height="2"/>
            </svg>
        </g>

        <g transform="translate(0,28.5)">
            <path d="m 2.2,-25.62 h 14.27 q 4.13,0 6.27,2.14 2.15,2.14 2.15,6.28 v 0 8.78 q 0,4.14 -2.15,6.28 Q 20.6,0 16.47,0 V 0 H 2.2 Z m 16.1,17.2 v -8.78 q 0,-3.29 -3.3,-3.29 v 0 H 8.78 V -5.12 H 15 q 3.3,0 3.3,-3.3 z M 28.55,0 v -25.62 h 15.37 q 3.84,0 5.58,1.74 1.74,1.74 1.74,5.58 v 0 3.3 q 0,3.03 -1.01,4.72 -1.01,1.68 -3.2,2.23 v 0 L 51.6,0 H 44.47 L 40.26,-7.69 H 35.13 V 0 Z m 16.1,-15 v -3.3 q 0,-2.19 -2.2,-2.19 v 0 h -7.32 v 7.68 h 7.32 q 2.2,0 2.2,-2.19 z m 32.2,15 v -14.27 l -5.12,9.15 h -5.12 l -5.13,-9.15 V 0 H 54.9 v -25.62 h 6.95 l 7.32,13.54 7.32,-13.54 h 6.95 V 0 Z M 94.05,-4.57 92.41,0 h -7.14 l 9.7,-25.62 h 7.32 L 111.99,0 h -7.14 l -1.65,-4.57 z m 4.58,-13.36 -2.93,8.6 h 5.86 z M 120.04,-4.57 118.39,0 h -7.14 l 9.7,-25.62 h 7.32 L 137.97,0 h -7.14 l -1.64,-4.57 z m 4.57,-13.36 -2.93,8.6 h 5.86 z"/>
        </g>

        <g transform="translate(173,28.5)">
            <path d="M 15.37,-4.76 V 0 Q 11.82,0.37 8.42,0.37 v 0 q -2.49,0 -3.99,-1.5 -1.5,-1.5 -1.5,-3.99 v 0 -9.34 h -2.2 v -4.94 h 2.2 l 0.73,-4.39 h 5.67 v 4.39 h 4.58 v 4.94 H 9.33 v 8.42 q 0,0.55 0.37,0.92 0.36,0.36 0.91,0.36 v 0 z m 0.73,-13.9 h 9.15 V 0 h -6.4 V -13.72 H 16.1 Z m 2.75,-2.2 v -5.12 h 6.4 v 5.12 z m 27.26,15.74 v 5.5 Q 39.27,0.37 34.04,0.37 v 0 q -2.49,0 -3.99,-1.5 -1.5,-1.5 -1.5,-3.99 v 0 -8.42 q 0,-2.75 1.55,-4.3 1.56,-1.56 4.3,-1.56 v 0 h 11.71 v 4.94 h -9.7 q -1.46,0 -1.46,1.47 v 0 7.13 q 0,0.55 0.37,0.92 0.36,0.37 0.91,0.37 v 0 q 3.29,0 9.88,0.0 z"/>
        </g>

        <g fill="whitesmoke" class="typewriter" transform="translate(-2.5,46)">
            <g transform="scale(1.25)">
                <path d="m 0.74,0 v -5.41 h 1.35 q 1.26,0 1.91,0.69 0.65,0.7 0.65,1.99 v 0 q 0,0.64 -0.16,1.15 Q 4.32,-1.07 4,-0.72 3.68,-0.37 3.21,-0.19 2.74,0 2.13,0 v 0 z m 0.69,-0.56 h 0.61 q 0.95,0 1.43,-0.57 0.47,-0.57 0.47,-1.6 v 0 Q 3.94,-3.76 3.47,-4.3 2.99,-4.85 2.04,-4.85 v 0 H 1.43 Z m 5.07,-4.3 v 2.02 h 0.9 q 0.64,0 0.98,-0.26 0.34,-0.26 0.34,-0.79 v 0 Q 8.72,-4.43 8.38,-4.64 8.04,-4.86 7.4,-4.86 v 0 z M 9.56,0 H 8.78 L 7.48,-2.28 H 6.5 V 0 H 5.81 V -5.41 H 7.5 q 0.42,0 0.77,0.08 0.35,0.08 0.6,0.26 0.25,0.18 0.39,0.47 0.14,0.29 0.14,0.71 v 0 q 0,0.63 -0.33,1.01 -0.33,0.38 -0.88,0.52 v 0 z m 1.64,-2.2 h 1.62 l -0.25,-0.83 q -0.15,-0.45 -0.28,-0.9 -0.14,-0.45 -0.27,-0.92 v 0 h -0.03 q -0.12,0.47 -0.26,0.92 -0.13,0.45 -0.28,0.9 v 0 z M 13.51,0 12.99,-1.65 H 11.02 L 10.5,0 H 9.8 l 1.83,-5.41 h 0.78 L 14.24,0 Z m 1.5,0 v -5.41 h 0.8 l 1.05,2.9 0.4,1.11 h 0.03 l 0.38,-1.11 1.04,-2.9 h 0.81 V 0 h -0.65 v -2.98 q 0,-0.36 0.02,-0.8 0.03,-0.43 0.07,-0.8 v 0 h -0.04 l -0.43,1.21 -1.04,2.83 h -0.39 l -1.05,-2.83 -0.43,-1.21 h -0.03 q 0.03,0.37 0.06,0.8 0.03,0.44 0.03,0.8 v 0 V 0 Z m 6.67,-2.2 H 23.3 L 23.05,-3.03 Q 22.9,-3.48 22.77,-3.93 22.63,-4.38 22.5,-4.85 v 0 h -0.03 q -0.12,0.47 -0.26,0.92 -0.13,0.45 -0.28,0.9 v 0 z M 23.99,0 23.48,-1.65 H 21.5 L 20.98,0 h -0.7 l 1.83,-5.41 h 0.78 L 24.72,0 Z m 2.29,0 v -4.83 h -1.63 v -0.58 h 3.95 v 0.58 H 26.97 V 0 Z m 3.3,0 v -5.41 h 0.68 V 0 Z m 1.85,-2.7 v 0 q 0,-0.66 0.18,-1.18 0.18,-0.51 0.51,-0.88 0.32,-0.36 0.76,-0.55 0.44,-0.2 0.96,-0.2 v 0 q 0.49,0 0.87,0.2 0.37,0.21 0.61,0.47 v 0 l -0.39,0.44 q -0.22,-0.23 -0.48,-0.37 -0.26,-0.14 -0.6,-0.14 v 0 q -0.39,0 -0.7,0.16 -0.32,0.15 -0.54,0.43 -0.22,0.29 -0.35,0.69 -0.12,0.41 -0.12,0.91 v 0 q 0,0.51 0.12,0.92 0.12,0.41 0.33,0.7 0.22,0.28 0.53,0.44 0.31,0.16 0.69,0.16 v 0 q 0.4,0 0.69,-0.16 0.3,-0.16 0.56,-0.44 v 0 l 0.39,0.42 q -0.32,0.37 -0.73,0.57 -0.4,0.21 -0.92,0.21 v 0 Q 33.29,0.1 32.85,-0.09 32.42,-0.28 32.1,-0.64 31.79,-1 31.61,-1.52 31.43,-2.04 31.43,-2.7 Z m 5.7,0.5 h 1.62 L 38.5,-3.03 q -0.15,-0.45 -0.28,-0.9 -0.13,-0.45 -0.27,-0.92 v 0 h -0.03 q -0.12,0.47 -0.25,0.92 -0.14,0.45 -0.28,0.9 v 0 z M 39.44,0 38.93,-1.65 H 36.96 L 36.44,0 h -0.7 l 1.83,-5.41 h 0.77 L 40.17,0 Z m 1.5,0 v -5.41 h 0.68 v 4.82 h 2.37 V 0 Z m 4.01,0 v -5.41 h 0.68 v 4.82 H 48 V 0 Z m 4.25,0 v -2.09 l -1.62,-3.32 h 0.73 l 0.7,1.53 q 0.13,0.29 0.26,0.58 0.12,0.29 0.26,0.6 v 0 h 0.03 q 0.14,-0.31 0.28,-0.6 0.14,-0.29 0.27,-0.58 v 0 l 0.69,-1.53 h 0.72 l -1.63,3.32 V 0 Z m 4.72,0 V -5.41 H 54.6 V 0 Z m 2.17,0 v -5.41 h 0.8 l 1.05,2.9 0.4,1.11 h 0.03 l 0.38,-1.11 1.04,-2.9 H 60.6 V 0 h -0.65 v -2.98 q 0,-0.36 0.02,-0.8 0.03,-0.43 0.07,-0.8 v 0 H 60 l -0.43,1.21 -1.04,2.83 h -0.39 l -1.05,-2.83 -0.43,-1.21 h -0.03 q 0.03,0.37 0.06,0.8 0.03,0.44 0.03,0.8 v 0 V 0 Z m 5.99,0 v -5.41 h 1.66 q 0.44,0 0.81,0.08 0.38,0.09 0.64,0.27 0.25,0.19 0.4,0.49 0.14,0.31 0.14,0.75 v 0 q 0,0.43 -0.14,0.74 -0.15,0.32 -0.41,0.52 -0.26,0.21 -0.63,0.31 -0.37,0.11 -0.81,0.11 v 0 H 62.77 V 0 Z m 0.69,-2.7 h 0.89 q 0.7,0 1.05,-0.27 0.34,-0.27 0.34,-0.85 v 0 q 0,-0.58 -0.35,-0.81 -0.34,-0.23 -1.04,-0.23 v 0 h -0.89 z m 4.74,-2.16 v 2.02 h 0.91 q 0.64,0 0.97,-0.26 0.34,-0.26 0.34,-0.79 v 0 q 0,-0.54 -0.34,-0.75 -0.33,-0.22 -0.97,-0.22 v 0 z M 70.57,0 H 69.8 L 68.5,-2.28 H 67.51 V 0 h -0.68 v -5.41 h 1.69 q 0.41,0 0.76,0.08 0.35,0.08 0.61,0.26 0.25,0.18 0.39,0.47 0.14,0.29 0.14,0.71 v 0 q 0,0.63 -0.33,1.01 -0.33,0.38 -0.89,0.52 v 0 z m 3.05,0.1 v 0 q -0.52,0 -0.94,-0.2 -0.42,-0.2 -0.73,-0.56 -0.3,-0.37 -0.47,-0.89 -0.17,-0.53 -0.17,-1.18 v 0 q 0,-0.65 0.17,-1.17 0.17,-0.51 0.47,-0.87 0.31,-0.36 0.73,-0.55 0.42,-0.19 0.94,-0.19 v 0 q 0.51,0 0.93,0.2 0.43,0.19 0.74,0.55 0.31,0.36 0.47,0.87 0.17,0.52 0.17,1.16 v 0 q 0,0.65 -0.17,1.18 -0.16,0.52 -0.47,0.89 -0.31,0.36 -0.74,0.56 -0.42,0.2 -0.93,0.2 z m 0,-0.6 v 0 q 0.36,0 0.65,-0.16 0.29,-0.16 0.5,-0.45 0.21,-0.29 0.33,-0.7 0.12,-0.41 0.12,-0.92 v 0 q 0,-0.5 -0.12,-0.91 -0.12,-0.4 -0.33,-0.68 -0.21,-0.28 -0.5,-0.43 -0.29,-0.16 -0.65,-0.16 v 0 q -0.37,0 -0.66,0.16 -0.29,0.15 -0.5,0.43 -0.21,0.28 -0.33,0.68 -0.11,0.41 -0.11,0.91 v 0 q 0,0.51 0.11,0.92 0.12,0.41 0.33,0.7 0.21,0.29 0.5,0.45 0.29,0.16 0.66,0.16 z M 78,0 76.27,-5.41 h 0.74 l 0.86,2.92 q 0.15,0.49 0.26,0.9 0.11,0.41 0.27,0.89 v 0 h 0.03 q 0.15,-0.48 0.27,-0.89 0.11,-0.41 0.25,-0.9 v 0 l 0.87,-2.92 h 0.7 L 78.8,0 Z m 3.26,0 v -5.41 h 3.12 v 0.58 h -2.44 v 1.7 H 84 v 0.58 h -2.06 v 1.96 h 2.52 V 0 Z m 6.88,0 v -2.09 l -1.62,-3.32 h 0.73 l 0.71,1.53 q 0.13,0.29 0.25,0.58 0.12,0.29 0.26,0.6 v 0 h 0.04 q 0.14,-0.31 0.28,-0.6 0.14,-0.29 0.26,-0.58 v 0 l 0.69,-1.53 h 0.72 l -1.62,3.32 V 0 Z m 4.94,0.1 v 0 q -0.52,0 -0.94,-0.2 -0.42,-0.2 -0.73,-0.56 -0.31,-0.37 -0.47,-0.89 -0.17,-0.53 -0.17,-1.18 v 0 q 0,-0.65 0.17,-1.17 0.16,-0.51 0.47,-0.87 0.31,-0.36 0.73,-0.55 0.42,-0.19 0.94,-0.19 v 0 q 0.51,0 0.93,0.2 0.43,0.19 0.74,0.55 0.3,0.36 0.47,0.87 0.17,0.52 0.17,1.16 v 0 q 0,0.65 -0.17,1.18 -0.17,0.52 -0.47,0.89 -0.31,0.36 -0.74,0.56 -0.42,0.2 -0.93,0.2 z m 0,-0.6 v 0 q 0.36,0 0.65,-0.16 0.29,-0.16 0.5,-0.45 0.21,-0.29 0.33,-0.7 0.12,-0.41 0.12,-0.92 v 0 q 0,-0.5 -0.12,-0.91 -0.12,-0.4 -0.33,-0.68 -0.21,-0.28 -0.5,-0.43 -0.29,-0.16 -0.65,-0.16 v 0 q -0.37,0 -0.66,0.16 -0.29,0.15 -0.5,0.43 -0.21,0.28 -0.33,0.68 -0.11,0.41 -0.11,0.91 v 0 q 0,0.51 0.11,0.92 0.12,0.41 0.33,0.7 0.21,0.29 0.5,0.45 0.29,0.16 0.66,0.16 z m 3.45,-1.73 v -3.18 h 0.68 v 3.19 q 0,0.49 0.1,0.82 0.1,0.33 0.27,0.53 0.17,0.19 0.4,0.28 0.23,0.09 0.5,0.09 v 0 q 0.27,0 0.5,-0.09 0.23,-0.09 0.4,-0.28 0.18,-0.2 0.28,-0.53 0.09,-0.33 0.09,-0.82 v 0 -3.19 h 0.66 v 3.18 q 0,0.65 -0.14,1.09 -0.15,0.45 -0.41,0.72 -0.26,0.28 -0.62,0.4 -0.35,0.12 -0.76,0.12 v 0 q -0.42,0 -0.77,-0.12 -0.36,-0.12 -0.62,-0.4 -0.26,-0.27 -0.41,-0.72 -0.15,-0.44 -0.15,-1.09 z m 6.03,-2.63 v 2.02 h 0.9 q 0.64,0 0.98,-0.26 0.34,-0.26 0.34,-0.79 v 0 q 0,-0.54 -0.34,-0.75 -0.34,-0.22 -0.98,-0.22 v 0 z M 105.62,0 h -0.78 l -1.3,-2.28 h -0.98 V 0 h -0.69 v -5.41 h 1.69 q 0.42,0 0.77,0.08 0.35,0.08 0.6,0.26 0.25,0.18 0.39,0.47 0.14,0.29 0.14,0.71 v 0 q 0,0.63 -0.33,1.01 -0.33,0.38 -0.88,0.52 v 0 z m 2.4,-2.7 v 0 q 0,-0.66 0.18,-1.18 0.18,-0.51 0.5,-0.88 0.32,-0.36 0.76,-0.55 0.44,-0.2 0.96,-0.2 v 0 q 0.5,0 0.87,0.2 0.37,0.21 0.61,0.47 v 0 l -0.39,0.44 q -0.21,-0.23 -0.47,-0.37 -0.26,-0.14 -0.61,-0.14 v 0 q -0.39,0 -0.7,0.16 -0.31,0.15 -0.53,0.43 -0.23,0.29 -0.35,0.69 -0.12,0.41 -0.12,0.91 v 0 q 0,0.51 0.12,0.92 0.11,0.41 0.33,0.7 0.21,0.28 0.52,0.44 0.31,0.16 0.7,0.16 v 0 q 0.4,0 0.69,-0.16 0.29,-0.16 0.55,-0.44 v 0 l 0.39,0.42 q -0.32,0.37 -0.72,0.57 -0.41,0.21 -0.93,0.21 v 0 q -0.51,0 -0.94,-0.19 -0.43,-0.19 -0.75,-0.55 -0.32,-0.36 -0.5,-0.88 -0.17,-0.52 -0.17,-1.18 z m 5.02,2.7 v -5.41 h 0.68 v 4.82 h 2.37 V 0 Z m 3.74,-2.23 v -3.18 h 0.69 v 3.19 q 0,0.49 0.09,0.82 0.1,0.33 0.27,0.53 0.17,0.19 0.4,0.28 0.23,0.09 0.5,0.09 v 0 q 0.27,0 0.5,-0.09 0.23,-0.09 0.4,-0.28 0.18,-0.2 0.28,-0.53 0.1,-0.33 0.1,-0.82 v 0 -3.19 h 0.66 v 3.18 q 0,0.65 -0.15,1.09 -0.15,0.45 -0.41,0.72 -0.26,0.28 -0.62,0.4 -0.35,0.12 -0.76,0.12 v 0 q -0.41,0 -0.77,-0.12 -0.36,-0.12 -0.62,-0.4 -0.26,-0.27 -0.41,-0.72 -0.15,-0.44 -0.15,-1.09 z m 4.87,1.53 0.41,-0.48 q 0.29,0.31 0.68,0.49 0.39,0.19 0.81,0.19 v 0 q 0.54,0 0.83,-0.25 0.3,-0.24 0.3,-0.64 v 0 q 0,-0.2 -0.07,-0.35 -0.07,-0.14 -0.19,-0.24 -0.12,-0.11 -0.28,-0.19 -0.17,-0.08 -0.36,-0.17 v 0 l -0.77,-0.34 q -0.19,-0.08 -0.39,-0.2 -0.2,-0.11 -0.36,-0.28 -0.15,-0.16 -0.25,-0.39 -0.1,-0.23 -0.1,-0.52 v 0 q 0,-0.31 0.13,-0.57 0.13,-0.27 0.35,-0.46 0.23,-0.19 0.54,-0.3 0.31,-0.11 0.68,-0.11 v 0 q 0.49,0 0.9,0.19 0.41,0.18 0.7,0.48 v 0 l -0.37,0.45 q -0.25,-0.24 -0.55,-0.38 -0.3,-0.14 -0.68,-0.14 v 0 q -0.45,0 -0.73,0.21 -0.28,0.21 -0.28,0.59 v 0 q 0,0.19 0.08,0.33 0.08,0.14 0.21,0.24 0.13,0.1 0.29,0.18 0.16,0.08 0.32,0.14 v 0 l 0.77,0.33 q 0.23,0.1 0.44,0.23 0.2,0.13 0.35,0.3 0.15,0.17 0.24,0.39 0.08,0.23 0.08,0.53 v 0 q 0,0.32 -0.13,0.6 -0.12,0.28 -0.36,0.49 -0.24,0.21 -0.58,0.33 -0.34,0.12 -0.77,0.12 v 0 q -0.57,0 -1.05,-0.22 Q 122,-0.33 121.65,-0.7 Z M 127.4,0 v -4.83 h -1.63 v -0.58 h 3.96 v 0.58 h -1.64 V 0 Z m 3.3,0 v -5.41 h 3.12 v 0.58 h -2.44 v 1.7 h 2.06 v 0.58 h -2.06 v 1.96 h 2.52 V 0 Z m 5.03,-4.86 v 2.02 h 0.91 q 0.63,0 0.97,-0.26 0.34,-0.26 0.34,-0.79 v 0 q 0,-0.54 -0.34,-0.75 -0.34,-0.22 -0.97,-0.22 v 0 z M 138.79,0 h -0.78 l -1.3,-2.28 h -0.98 V 0 h -0.68 v -5.41 h 1.69 q 0.41,0 0.76,0.08 0.35,0.08 0.6,0.26 0.25,0.18 0.39,0.47 0.14,0.29 0.14,0.71 v 0 q 0,0.63 -0.33,1.01 -0.33,0.38 -0.88,0.52 v 0 z m 2.71,0 v -5.41 h 1.66 q 0.44,0 0.82,0.08 0.37,0.09 0.63,0.27 0.26,0.19 0.4,0.49 0.14,0.31 0.14,0.75 v 0 q 0,0.43 -0.14,0.74 -0.14,0.32 -0.41,0.52 -0.26,0.21 -0.63,0.31 -0.37,0.11 -0.81,0.11 v 0 h -0.97 V 0 Z m 0.69,-2.7 h 0.89 q 0.71,0 1.05,-0.27 0.34,-0.27 0.34,-0.85 v 0 q 0,-0.58 -0.35,-0.81 -0.34,-0.23 -1.04,-0.23 v 0 h -0.89 z m 6.06,2.8 v 0 q -0.51,0 -0.94,-0.2 -0.42,-0.2 -0.73,-0.56 -0.3,-0.37 -0.47,-0.89 -0.17,-0.53 -0.17,-1.18 v 0 q 0,-0.65 0.17,-1.17 0.17,-0.51 0.47,-0.87 0.31,-0.36 0.73,-0.55 0.43,-0.19 0.94,-0.19 v 0 q 0.51,0 0.93,0.2 0.43,0.19 0.74,0.55 0.31,0.36 0.47,0.87 0.17,0.52 0.17,1.16 v 0 q 0,0.65 -0.17,1.18 -0.16,0.52 -0.47,0.89 -0.31,0.36 -0.74,0.56 -0.42,0.2 -0.93,0.2 z m 0,-0.6 v 0 q 0.36,0 0.65,-0.16 0.29,-0.16 0.5,-0.45 0.22,-0.29 0.33,-0.7 0.12,-0.41 0.12,-0.92 v 0 q 0,-0.5 -0.12,-0.91 -0.11,-0.4 -0.33,-0.68 -0.21,-0.28 -0.5,-0.43 -0.29,-0.16 -0.65,-0.16 v 0 q -0.37,0 -0.66,0.16 -0.29,0.15 -0.5,0.43 -0.21,0.28 -0.33,0.68 -0.11,0.41 -0.11,0.91 v 0 q 0,0.51 0.11,0.92 0.12,0.41 0.33,0.7 0.21,0.29 0.5,0.45 0.29,0.16 0.66,0.16 z m 4.43,0.5 v -4.83 h -1.63 v -0.58 h 3.96 v 0.58 h -1.63 V 0 Z m 3.3,0 v -5.41 h 3.12 v 0.58 h -2.43 v 1.7 h 2.05 v 0.58 h -2.05 v 1.96 h 2.51 V 0 Z m 4.35,0 v -5.41 h 0.71 l 1.95,3.4 0.58,1.12 h 0.04 q -0.03,-0.41 -0.06,-0.85 -0.02,-0.45 -0.02,-0.87 v 0 -2.8 h 0.65 V 0 h -0.71 l -1.96,-3.41 -0.59,-1.11 h -0.03 q 0.03,0.41 0.06,0.84 0.03,0.42 0.03,0.85 v 0 V 0 Z m 6.45,0 v -4.83 h -1.63 v -0.58 h 3.96 v 0.58 h -1.63 V 0 Z m 3.3,0 v -5.41 h 0.69 V 0 Z m 2.85,-2.2 h 1.62 l -0.26,-0.83 q -0.14,-0.45 -0.28,-0.9 -0.13,-0.45 -0.26,-0.92 v 0 h -0.03 q -0.13,0.47 -0.26,0.92 -0.13,0.45 -0.28,0.9 v 0 z m 2.3,2.2 -0.51,-1.65 h -1.97 L 172.23,0 h -0.7 l 1.83,-5.41 h 0.78 L 175.97,0 Z m 1.5,0 v -5.41 h 0.69 v 4.82 h 2.37 V 0 Z"/>
            </g>
        </g>
    </g>
</svg>
